<svg width="16" height="16" viewBox="0 0 16 16" fill="none" xmlns="http://www.w3.org/2000/svg">
<path d="M7.99966 14.4C6.73387 14.4 5.49642 14.0246 4.44395 13.3213C3.39149 12.6181 2.57108 11.6187 2.08668 10.4492C1.60228 9.27978 1.47568 7.99293 1.72262 6.75146C1.96956 5.50999 2.57912 4.36958 3.47417 3.47453C4.36922 2.57948 5.50976 1.96993 6.75123 1.72298C7.9927 1.47604 9.27916 1.60278 10.4486 2.08717C11.618 2.57157 12.6177 3.39198 13.321 4.44445C14.0242 5.49691 14.3996 6.73423 14.3996 8.00002C14.3976 9.69679 13.7229 11.3235 12.5231 12.5233C11.3233 13.7231 9.69642 14.398 7.99966 14.4ZM7.46633 6.85979V10.3797C7.46633 10.5211 7.52256 10.6569 7.62258 10.7569C7.72259 10.8569 7.85821 10.913 7.99966 10.913C8.1411 10.913 8.27672 10.8569 8.37674 10.7569C8.47676 10.6569 8.53299 10.5211 8.53299 10.3797V6.88427L9.53662 7.88804C9.63659 7.9877 9.77203 8.04364 9.91318 8.04364C10.0543 8.04364 10.1898 7.9877 10.2897 7.88804C10.3394 7.8385 10.379 7.77966 10.4059 7.71487C10.4328 7.65007 10.4465 7.58059 10.4465 7.51044C10.4465 7.44029 10.4328 7.37081 10.4059 7.30601C10.379 7.24122 10.3394 7.18238 10.2897 7.13284L8.3783 5.21918C8.32864 5.16937 8.26985 5.12995 8.20486 5.10304C8.13988 5.07613 8.06999 5.06229 7.99966 5.06241H7.97518C7.90484 5.06229 7.83496 5.07613 7.76997 5.10304C7.70498 5.12995 7.64619 5.16937 7.59653 5.21918L5.68301 7.13284C5.60866 7.20742 5.55818 7.30232 5.5377 7.40562C5.51721 7.50892 5.52763 7.61599 5.5679 7.7133C5.60817 7.81061 5.67625 7.89388 5.76374 7.95249C5.85122 8.01111 5.95426 8.04249 6.05957 8.04273C6.12965 8.04285 6.19894 8.02908 6.26373 8.00236C6.32852 7.97564 6.38755 7.93649 6.43717 7.887L7.46633 6.85979Z" fill="#0EB35B"/>
</svg>
