<svg width="16" height="16" viewBox="0 0 16 16" fill="none" xmlns="http://www.w3.org/2000/svg">
<path d="M7.99966 14.4C6.73387 14.4 5.49642 14.0246 4.44395 13.3213C3.39149 12.6181 2.57108 11.6187 2.08668 10.4492C1.60228 9.27978 1.47568 7.99293 1.72262 6.75146C1.96956 5.50999 2.57912 4.36958 3.47417 3.47453C4.36922 2.57948 5.50976 1.96993 6.75123 1.72298C7.9927 1.47604 9.27916 1.60278 10.4486 2.08717C11.618 2.57157 12.6177 3.39198 13.321 4.44445C14.0242 5.49691 14.3996 6.73423 14.3996 8.00002C14.3979 9.69687 13.7229 11.3237 12.5231 12.5236C11.3232 13.7234 9.69651 14.3983 7.99966 14.4ZM5.54655 7.60862C5.47646 7.60849 5.40665 7.62213 5.34186 7.64885C5.27707 7.67557 5.21857 7.71485 5.16895 7.76434C5.11928 7.81389 5.07969 7.87273 5.0528 7.93752C5.02592 8.00231 5.01218 8.07179 5.01218 8.14195C5.01218 8.2121 5.02592 8.28145 5.0528 8.34624C5.07969 8.41104 5.11928 8.47001 5.16895 8.51955L6.808 10.159C6.90797 10.2586 7.0434 10.3146 7.18456 10.3146C7.32572 10.3146 7.46115 10.2586 7.56112 10.159L10.822 6.89703C10.8729 6.84776 10.9134 6.78896 10.9413 6.72386C10.9692 6.65875 10.984 6.58868 10.9845 6.51787C10.985 6.44706 10.9713 6.37686 10.9444 6.31136C10.9175 6.24586 10.8779 6.18636 10.8278 6.13636C10.7776 6.08636 10.7178 6.04681 10.6522 6.02009C10.5867 5.99336 10.5163 5.98005 10.4455 5.98076C10.3747 5.98148 10.3048 5.99621 10.2397 6.02425C10.1747 6.05229 10.116 6.09304 10.0668 6.14404L7.18664 9.02397L5.92519 7.76213C5.87527 7.71289 5.81569 7.67403 5.75071 7.64768C5.68574 7.62132 5.61667 7.60807 5.54655 7.60862Z" fill="white"/>
</svg>
