<svg width="24" height="24" viewBox="0 0 24 24" fill="none" xmlns="http://www.w3.org/2000/svg">
<path d="M11.9995 0C11.5221 0 11.0643 0.189642 10.7267 0.527208C10.3891 0.864773 10.1995 1.32261 10.1995 1.8V2.634C8.65485 3.03282 7.28641 3.93334 6.30902 5.19417C5.33164 6.45499 4.80067 8.00471 4.79948 9.6V16.8L2.95748 18.188C2.7387 18.3274 2.57099 18.534 2.47948 18.7767C2.38797 19.0195 2.37759 19.2853 2.4499 19.5345C2.52221 19.7836 2.67331 20.0026 2.88057 20.1587C3.08782 20.3147 3.34006 20.3994 3.59948 20.4H20.3995C20.6594 20.4002 20.9123 20.3159 21.1202 20.16C21.3281 20.0041 21.4798 19.7848 21.5524 19.5353C21.625 19.2858 21.6146 19.0194 21.5229 18.7762C21.4311 18.5331 21.2629 18.3263 21.0435 18.187L19.1995 16.8V9.6C19.1983 8.00471 18.6673 6.45499 17.6899 5.19417C16.7126 3.93334 15.3441 3.03282 13.7995 2.634V1.8C13.7995 1.32261 13.6098 0.864773 13.2723 0.527208C12.9347 0.189642 12.4769 0 11.9995 0ZM9.59948 21.6C9.59948 22.2365 9.85234 22.847 10.3024 23.2971C10.7525 23.7471 11.363 24 11.9995 24C12.636 24 13.2464 23.7471 13.6965 23.2971C14.1466 22.847 14.3995 22.2365 14.3995 21.6H9.59948Z" fill="#A2A3A5"/>
</svg>
