<svg width="24" height="24" viewBox="0 0 24 24" fill="none" xmlns="http://www.w3.org/2000/svg">
<path d="M12.0004 2.40079C10.1017 2.40079 8.24563 2.96382 6.66692 4.01868C5.08821 5.07354 3.85775 6.57286 3.13115 8.32703C2.40455 10.0812 2.21444 12.0114 2.58486 13.8737C2.95527 15.7359 3.86959 17.4464 5.21217 18.789C6.55475 20.1316 8.26531 21.0459 10.1275 21.4163C11.9897 21.7867 13.92 21.5966 15.6742 20.87C17.4283 20.1434 18.9276 18.913 19.9825 17.3343C21.0374 15.7555 21.6004 13.8995 21.6004 12.0008C21.6004 9.45471 20.589 7.01291 18.7886 5.21256C16.9883 3.41221 14.5465 2.40079 12.0004 2.40079ZM16.8004 12.8008H7.2004C6.98822 12.8008 6.78474 12.7165 6.63471 12.5665C6.48468 12.4164 6.40039 12.213 6.40039 12.0008C6.40039 11.7886 6.48468 11.5851 6.63471 11.4351C6.78474 11.2851 6.98822 11.2008 7.2004 11.2008H16.8004C17.0126 11.2008 17.2161 11.2851 17.3661 11.4351C17.5161 11.5851 17.6004 11.7886 17.6004 12.0008C17.6004 12.213 17.5161 12.4164 17.3661 12.5665C17.2161 12.7165 17.0126 12.8008 16.8004 12.8008Z" fill="#146EB0"/>
</svg>
