<svg width="25" height="24" viewBox="0 0 25 24" fill="none" xmlns="http://www.w3.org/2000/svg">
<g clip-path="url(#clip0_2187_383)">
<mask id="mask0_2187_383" style="mask-type:luminance" maskUnits="userSpaceOnUse" x="0" y="0" width="25" height="24">
<path d="M24.5 0H0.5V24H24.5V0Z" fill="white"/>
</mask>
<g mask="url(#mask0_2187_383)">
<path d="M12.5004 2.39999C10.6017 2.39999 8.74563 2.96302 7.16692 4.01789C5.58821 5.07275 4.35775 6.57206 3.63115 8.32623C2.90455 10.0804 2.71444 12.0106 3.08486 13.8729C3.45527 15.7351 4.36959 17.4456 5.71217 18.7882C7.05475 20.1308 8.76531 21.0451 10.6275 21.4155C12.4897 21.7859 14.42 21.5958 16.1742 20.8692C17.9283 20.1426 19.4276 18.9122 20.4825 17.3335C21.5374 15.7548 22.1004 13.8987 22.1004 12C22.1004 9.45391 21.089 7.01212 19.2886 5.21177C17.4883 3.41142 15.0465 2.39999 12.5004 2.39999Z" fill="#146EB0"/>
<path d="M16.5002 12.8H13.3002V16C13.3002 16.2122 13.2159 16.4156 13.0659 16.5657C12.9159 16.7157 12.7124 16.8 12.5002 16.8C12.288 16.8 12.0845 16.7157 11.9345 16.5657C11.7845 16.4156 11.7002 16.2122 11.7002 16V12.8H8.5002C8.28802 12.8 8.08454 12.7157 7.93451 12.5657C7.78448 12.4156 7.7002 12.2122 7.7002 12C7.7002 11.7878 7.78448 11.5843 7.93451 11.4343C8.08454 11.2843 8.28802 11.2 8.5002 11.2H11.7002V7.99998C11.7002 7.78781 11.7845 7.58433 11.9345 7.4343C12.0845 7.28427 12.288 7.19998 12.5002 7.19998C12.7124 7.19998 12.9159 7.28427 13.0659 7.4343C13.2159 7.58433 13.3002 7.78781 13.3002 7.99998V11.2H16.5002C16.7124 11.2 16.9159 11.2843 17.0659 11.4343C17.2159 11.5843 17.3002 11.7878 17.3002 12C17.3002 12.2122 17.2159 12.4156 17.0659 12.5657C16.9159 12.7157 16.7124 12.8 16.5002 12.8Z" fill="#031D32"/>
</g>
</g>
<defs>
<clipPath id="clip0_2187_383">
<rect width="24" height="24" fill="white" transform="translate(0.5)"/>
</clipPath>
</defs>
</svg>
