<svg width="25" height="24" viewBox="0 0 25 24" fill="none" xmlns="http://www.w3.org/2000/svg">
<path d="M10.8952 2.39519C9.61252 2.39281 8.3481 2.69889 7.20853 3.2876C6.06896 3.87631 5.08765 4.7304 4.34735 5.77785C3.60705 6.82531 3.12946 8.03541 2.95485 9.30612C2.78024 10.5768 2.91373 11.8709 3.34407 13.0792C3.7744 14.2875 4.48897 15.3746 5.42751 16.2489C6.36605 17.1232 7.50105 17.759 8.7368 18.1026C9.97255 18.4463 11.2728 18.4878 12.528 18.2237C13.7831 17.9595 14.9564 17.3974 15.9488 16.5848L20.7256 21.3616C20.8759 21.5119 21.0798 21.5964 21.2924 21.5964C21.505 21.5964 21.7088 21.5119 21.8592 21.3616C22.0095 21.2113 22.094 21.0074 22.094 20.7948C22.094 20.5822 22.0095 20.3783 21.8592 20.228L17.0824 15.4512C18.0421 14.2804 18.6495 12.8611 18.8338 11.3585C19.0182 9.85584 18.7718 8.33178 18.1235 6.96375C17.4752 5.59571 16.4516 4.43999 15.1719 3.63118C13.8922 2.82236 12.409 2.39373 10.8952 2.39519ZM10.8952 3.99519C12.161 3.99519 13.3983 4.37054 14.4508 5.07378C15.5033 5.77702 16.3236 6.77656 16.808 7.94601C17.2924 9.11546 17.4191 10.4023 17.1722 11.6438C16.9253 12.8852 16.3157 14.0256 15.4207 14.9207C14.5256 15.8157 13.3852 16.4253 12.1438 16.6722C10.9023 16.9192 9.61545 16.7924 8.446 16.308C7.27655 15.8236 6.27701 15.0033 5.57377 13.9508C4.87053 12.8984 4.49517 11.661 4.49517 10.3952C4.49327 9.55419 4.65752 8.72111 4.97848 7.94377C5.29943 7.16643 5.77078 6.46014 6.36546 5.86547C6.96013 5.27079 7.66641 4.79945 8.44375 4.47849C9.2211 4.15753 10.0542 3.99329 10.8952 3.99519Z" fill="#146EB0"/>
</svg>
