<svg width="24" height="24" viewBox="0 0 24 24" fill="none" xmlns="http://www.w3.org/2000/svg">
<path d="M11.9996 1.60001C11.558 1.60001 11.1996 1.95841 11.1996 2.40001V2.53751C11.1996 2.91991 10.9303 3.26108 10.5527 3.32188C10.3695 3.35148 10.1882 3.38577 10.009 3.42657C9.63778 3.51137 9.2624 3.30121 9.1168 2.95001L9.06367 2.82501C8.89487 2.41701 8.42716 2.22259 8.01836 2.39219C7.61036 2.56099 7.41595 3.02871 7.58555 3.43751L7.63867 3.56563C7.78587 3.91763 7.66816 4.33434 7.34336 4.53594C7.18656 4.63354 7.03358 4.73579 6.88398 4.84219C6.57358 5.06379 6.14421 5.01336 5.87461 4.74376L5.77773 4.64688C5.46493 4.33408 4.95848 4.33408 4.64648 4.64688C4.33448 4.95968 4.33448 5.46613 4.64648 5.77813L4.74336 5.87501C5.01296 6.14461 5.0634 6.57318 4.8418 6.88438C4.7354 7.03398 4.63315 7.18696 4.53555 7.34376C4.33395 7.66856 3.91647 7.78703 3.56367 7.64063L3.43711 7.58751C3.02911 7.41871 2.55983 7.61232 2.39023 8.02032C2.22143 8.42832 2.41505 8.89603 2.82305 9.06563L2.94805 9.11719C3.29925 9.26279 3.51097 9.63818 3.42617 10.0094C3.38537 10.1886 3.34952 10.3699 3.31992 10.5531C3.25992 10.9299 2.91951 11.2 2.53711 11.2H2.39961C1.95801 11.2 1.59961 11.5584 1.59961 12C1.59961 12.4416 1.95801 12.8 2.39961 12.8H2.53711C2.91951 12.8 3.26068 13.0693 3.32148 13.4469C3.35108 13.6301 3.38537 13.8114 3.42617 13.9906C3.51097 14.3618 3.30081 14.7372 2.94961 14.8828L2.82461 14.9359C2.41661 15.1047 2.2222 15.5725 2.3918 15.9813C2.5606 16.3893 3.02831 16.5837 3.43711 16.4141L3.56523 16.3609C3.91803 16.2145 4.33471 16.3323 4.53711 16.6563C4.63471 16.8131 4.73616 16.9668 4.84336 17.1172C5.06496 17.4276 5.01452 17.857 4.74492 18.1266L4.64648 18.2234C4.33368 18.5362 4.33368 19.0427 4.64648 19.3547C4.95928 19.6667 5.46573 19.6675 5.77773 19.3547L5.87617 19.2578C6.14577 18.9882 6.57358 18.9362 6.88398 19.1578C7.03438 19.265 7.18812 19.368 7.34492 19.4656C7.66892 19.6672 7.7882 20.0847 7.6418 20.4375L7.58867 20.5641C7.41987 20.9721 7.61348 21.4413 8.02148 21.6109C8.42948 21.7797 8.8972 21.5861 9.0668 21.1781L9.11836 21.0531C9.26396 20.7019 9.63935 20.4902 10.0105 20.575C10.1897 20.6158 10.3711 20.6517 10.5543 20.6813C10.9295 20.7397 11.1996 21.0801 11.1996 21.4625V21.6C11.1996 22.0416 11.558 22.4 11.9996 22.4C12.4412 22.4 12.7996 22.0416 12.7996 21.6V21.4625C12.7996 21.0801 13.0689 20.7389 13.4465 20.6781C13.6297 20.6485 13.811 20.6142 13.9902 20.5734C14.3614 20.4886 14.7368 20.6988 14.8824 21.05L14.9355 21.175C15.1043 21.583 15.5721 21.7774 15.9809 21.6078C16.3889 21.439 16.5833 20.9713 16.4137 20.5625L16.3605 20.4344C16.2141 20.0816 16.3319 19.6649 16.6559 19.4625C16.8127 19.3649 16.9664 19.2635 17.1168 19.1563C17.4272 18.9347 17.8566 18.9851 18.1262 19.2547L18.223 19.3531C18.5358 19.6659 19.0423 19.6659 19.3543 19.3531C19.6663 19.0403 19.6671 18.5339 19.3543 18.2219L19.2574 18.1234C18.9878 17.8538 18.9358 17.426 19.1574 17.1156C19.2646 16.9652 19.3676 16.8115 19.4652 16.6547C19.6668 16.3307 20.0843 16.2114 20.4371 16.3578L20.5637 16.4109C20.9717 16.5797 21.4409 16.3861 21.6105 15.9781C21.7793 15.5701 21.5857 15.1024 21.1777 14.9328L21.0527 14.8813C20.7015 14.7357 20.4898 14.3603 20.5746 13.9891C20.6154 13.8099 20.6513 13.6285 20.6809 13.4453C20.7393 13.0701 21.0797 12.8 21.4621 12.8H21.5996C22.0412 12.8 22.3996 12.4416 22.3996 12C22.3996 11.5584 22.0412 11.2 21.5996 11.2H21.4621C21.0797 11.2 20.7385 10.9307 20.6777 10.5531C20.6481 10.3699 20.6138 10.1886 20.573 10.0094C20.4882 9.63818 20.6984 9.26279 21.0496 9.11719L21.1746 9.06407C21.5826 8.89527 21.777 8.42756 21.6074 8.01876C21.4386 7.61076 20.9709 7.41634 20.5621 7.58594L20.434 7.63907C20.0812 7.78547 19.6645 7.66776 19.4621 7.34376C19.3645 7.18696 19.2631 7.03322 19.1559 6.88282C18.9343 6.57242 18.9847 6.14304 19.2543 5.87344L19.3527 5.77657C19.6655 5.46377 19.6655 4.95732 19.3527 4.64532C19.0399 4.33252 18.5335 4.33252 18.2215 4.64532L18.1246 4.74376C17.855 5.01336 17.4256 5.06536 17.1152 4.84376C16.9648 4.73656 16.8111 4.63354 16.6543 4.53594C16.3303 4.33434 16.2126 3.91687 16.359 3.56407L16.4121 3.43751C16.5809 3.02951 16.3873 2.56023 15.9793 2.39063C15.5713 2.22183 15.1036 2.41544 14.934 2.82344L14.8809 2.94844C14.7353 3.29964 14.3599 3.51137 13.9887 3.42657C13.8095 3.38577 13.6281 3.34992 13.4449 3.32032C13.0689 3.26032 12.7996 2.91991 12.7996 2.53751V2.40001C12.7996 1.95841 12.4412 1.60001 11.9996 1.60001ZM11.9996 5.60001C15.2625 5.60001 17.9505 8.04391 18.3449 11.2H13.3824C13.2422 10.9572 13.0407 10.7555 12.798 10.6151C12.5553 10.4747 12.28 10.4005 11.9996 10.4C11.9991 10.4 11.9986 10.4 11.998 10.4L9.5168 6.10001C10.2804 5.77819 11.119 5.60001 11.9996 5.60001ZM8.13555 6.90626L10.6152 11.2C10.4744 11.4431 10.4 11.719 10.3996 12C10.4005 12.2799 10.4749 12.5547 10.6152 12.7969L8.13398 17.0922C6.59675 15.9232 5.59961 14.0801 5.59961 12C5.59961 9.91916 6.59732 8.07517 8.13555 6.90626ZM13.384 12.8H18.3449C17.9505 15.9561 15.2625 18.4 11.9996 18.4C11.119 18.4 10.2804 18.2218 9.5168 17.9L11.998 13.6C11.9986 13.6 11.9991 13.6 11.9996 13.6C12.2803 13.5998 12.5559 13.5257 12.7989 13.3853C13.0419 13.2449 13.2437 13.0431 13.384 12.8Z" fill="#146EB0"/>
</svg>
