<svg width="24" height="24" viewBox="0 0 24 24" fill="none" xmlns="http://www.w3.org/2000/svg">
<path d="M12 0C9.62663 0 7.30655 0.703788 5.33316 2.02236C3.35977 3.34094 1.8217 5.21509 0.913451 7.4078C0.00519943 9.60051 -0.232441 12.0133 0.230582 14.3411C0.693605 16.6689 1.83649 18.8071 3.51472 20.4853C5.19295 22.1635 7.33115 23.3064 9.65892 23.7694C11.9867 24.2324 14.3995 23.9948 16.5922 23.0866C18.7849 22.1783 20.6591 20.6402 21.9776 18.6668C23.2962 16.6935 24 14.3734 24 12C24 8.8174 22.7357 5.76515 20.4853 3.51472C18.2348 1.26428 15.1826 0 12 0ZM5.00001 19.141C6.16701 15.641 9.66701 17.007 10.25 15.111V13.847C9.6892 13.3637 9.30505 12.7076 9.15801 11.982C8.95101 11.964 8.62701 11.759 8.53101 10.948C8.50226 10.8086 8.51285 10.664 8.5616 10.5303C8.61034 10.3967 8.69531 10.2792 8.80701 10.191C8.62131 9.74655 8.51699 9.27235 8.49901 8.791C8.50001 6.72 9.52601 5 12 5C12.3518 4.9736 12.7037 5.04882 13.014 5.21671C13.3242 5.38459 13.5797 5.63808 13.75 5.947C14.944 5.947 15.5 7.256 15.5 8.791C15.4932 9.27371 15.3884 9.75001 15.192 10.191C15.3041 10.2789 15.3894 10.3963 15.4383 10.5301C15.4872 10.6638 15.4979 10.8085 15.469 10.948C15.369 11.759 15.049 11.964 14.842 11.982C14.6954 12.7078 14.3112 13.364 13.75 13.847V15.11C14.333 17.01 17.833 15.641 19 19.141C17.1307 20.9733 14.6175 21.9996 12 21.9996C9.38248 21.9996 6.86929 20.9733 5.00001 19.141Z" fill="#A2A3A5"/>
</svg>
